/* XPM */
static char * collection_xpm[] = {
"64 64 19 1",
" 	c None",
".	c #FFFFFF",
"+	c #C0EC41",
"@	c #C3AE2C",
"#	c #E5FF92",
"$	c #E7FBAE",
"%	c #DAC62C",
"&	c #ADBFC2",
"*	c #B1AC24",
"=	c #8C7521",
"-	c #A88F25",
";	c #E9F6F6",
">	c #9E8322",
",	c #C0A126",
"'	c #C3BD28",
")	c #ABE54C",
"!	c #83583B",
"~	c #8B733D",
"{	c #A29E2D",
"                                                                ",
"                                                                ",
"                                                                ",
"                                                                ",
"                                                                ",
"                                                                ",
"                                      ..                        ",
"                                      ..                        ",
"                                                                ",
"                                                                ",
"                                                                ",
"                                                                ",
"                                                                ",
"                        .                                       ",
"                       ...                                      ",
"                       ....                                     ",
"                        ..                                      ",
"                                                                ",
"                                                                ",
"                                                                ",
"                                     ..                         ",
"                                    ....                        ",
"                                    ....                        ",
"                                     ..                         ",
"                                                                ",
"                                                                ",
"                         ....                                   ",
"                        ......                                  ",
"                       ........                                 ",
"                      .........                                 ",
"                      ..............+                           ",
"                      ..........@@@@@+++                        ",
"                       .........#####@@@+$                      ",
"                      .$@.......####++++@@$                     ",
"                     .$%++++....#....+++++%$                    ",
"                     $%++++%.....&&...++++%+                    ",
"                    $%+++%%...........##+++%$                   ",
"                    $%++%+..........&.++%++%$                   ",
"                    +++%+..............++%+++                   ",
"                    *+%%+..............%+%%+*                   ",
"                    *+%%+..............%%%%+*                   ",
"                    =$%%+.............%%%%%+=                   ",
"                    =-.+%%...........@@%%;$-=                   ",
"                    =--.++>.........@>>+;;;-=                   ",
"                     =-,,+++>>>>>>>>>++$,;-=                    ",
"                     =-',,,,)$$...$)),,,,'-=                    ",
"                      =',,,,''''''''',,,,'=                     ",
"                       !,,,,)'''''''',,,,!                      ",
"                        !!,,)'''''''),,!!                       ",
"                       !~~!!!)''''')!!!~~!                      ",
"                      !{{~~~~!-'''-!~~~~{{!                     ",
"                     !{{~~~~~!~'''~!~~~~~{{!                    ",
"                     ={{~~~!!{{{'{{{!!~~~{{=                    ",
"                     ='{{~~{{{'''''{{{~~{{'=                    ",
"                      ='){{{{'''''''{{{{''=                     ",
"                       ==)''{{{{{{{{{')'==                      ",
"                         ==='''))))''===                        ",
"                            =========                           ",
"                                                                ",
"                                                                ",
"                                                                ",
"                                                                ",
"                                                                ",
"                                                                "};
