/* XPM */
static char * character_xpm[] = {
"64 64 43 1",
" 	c #83A448",
".	c #FFBF93",
"+	c #CE875A",
"@	c #8D4D43",
"#	c #B1744E",
"$	c #5A303C",
"%	c #FBB775",
"&	c #C9905F",
"*	c #76E0CD",
"=	c #8D5143",
"-	c #CBFEF4",
";	c #A55A48",
">	c #FE8E63",
",	c #BC7B52",
"'	c #6D413F",
")	c #FCA372",
"!	c #50BFAB",
"~	c #A97250",
"{	c #FFFFFF",
"]	c #B7E5F5",
"^	c #71A3B4",
"/	c #FFCB9E",
"(	c #FFBD85",
"_	c #185856",
":	c #9E6B4F",
"<	c #2E957D",
"[	c #51CF96",
"}	c #2DB18B",
"|	c #247771",
"1	c #FFE5C2",
"2	c #226D6B",
"3	c #E6CEAE",
"4	c #CCB392",
"5	c #88635B",
"6	c #FFD39E",
"7	c #806379",
"8	c #194454",
"9	c #CB8F83",
"0	c #2F9B7C",
"a	c #5F4252",
"b	c #A3616A",
"c	c #8C575E",
"d	c #52353D",
"                                                                ",
"                                                                ",
"                                             ...                ",
"                                            .....               ",
"                                            +....               ",
"                                            +++..               ",
"                                            +++@@               ",
"                                            +++@@               ",
"                                            +++@@               ",
"                                            #++@@               ",
"                                            @#+@@               ",
"                                            +##@@               ",
"                                            ###@@               ",
"                                            @##@@               ",
"                                            @@#@@               ",
"                                            @@@@$               ",
"                                            @@@$$               ",
"               %%%%%%%%%%%%%%%%%%            $$$                ",
"             &&&&&&&%%%%%%%%%%%%%%           $$$                ",
"           &&&&&&&&&&&%%%%%%%%%*******       $$                 ",
"          &&&=======&&&######------****      $@                 ",
"          &&=;;;;;;;=&&#####---------***     @@                 ",
"         &&=;;;;;;;;;=&&###=----------***    @@                 ",
"         &&=;;;;;;;;;=&&===-----------***    #@                 ",
"         &&=;;;;;;;;;=&&===*--------->****   ##                 ",
"         &&=;;;;;;;;;=&&===***------>>>***   ##                 ",
"         &&=;;;;;;;;;=,,==--------->>>>***   @#                 ",
"         ,,====='';;;=,,=--------->>)))!**   @@                 ",
"          ,~={{]^';;=,,'-------->>//))/!***  @@                 ",
"          ,,=^^''===,,,'''''**!!)))))))!!** @@@                 ",
"           ,=]^'=~,,,,''''''****)((((()!!***@@@                 ",
"            =]^==~,,''''''''--**>(((((>!!!***@                  ",
"             ]^==~~''''_____----:>(((><!!!  ##                  ",
"                [[[}|||||___----::>::<<<!!  ##                  ",
"               [[[}}}||______---:>>:<<<<!!  @#                  ",
"               [[}[}}||__11122-->>>__<<<!!  @@                  ",
"               [}[}}}||_311112--444>__<<!   @$                  ",
"               [[}}}}||33331122-3333__5<!   $$                  ",
"               [}}}}}|433333332-33333_5<!   @@                  ",
"               }}}}}}114443333_333333_55>>  666                 ",
"               }}}}}1111144433_333333355>>>((((                 ",
"               }}}}}11111147778933333355:>>((((                 ",
"               }}}}}(((()>777789933333555::((((                 ",
"                ||||_((((((7)887993339_    @((                  ",
"                |00000(((((((887999999_    @@                   ",
"                |000000_(((((()7999999     $@                   ",
"                |000000___((())a999339     $$                   ",
"                |00000|_|___)):a999999     $$                   ",
"                 ||||||_|___aaabb99399     $$                   ",
"                   ||||_____baba9b9b9a    $$$                   ",
"                            aaacbb999bb   $$                    ",
"                           ccccbbbbbbbb   $@                    ",
"                           ccbbbbbbcbbbb  $$                    ",
"                           cbbbbcccaccbb  @@                    ",
"                          bbbbbcccaaccbb  $$                    ",
"                          bbbbcccaaacccbb @$                    ",
"                          bbbccaa  acccbb $$                    ",
"                          bccca     accbb $$                    ",
"                           dda       add  $$                    ",
"                           bb         bb  $$                    ",
"                           aa         aa  $$                    ",
"                          ddd         ddd $$                    ",
"                                                                ",
"                                                                "};
