/* XPM */
static char * exit_xpm[] = {
"64 64 24 1",
" 	c #003A51",
".	c #7D91D3",
"+	c #04485E",
"@	c #404553",
"#	c #515EB7",
"$	c #3D3A8E",
"%	c #503C41",
"&	c #926C7A",
"*	c #A2798A",
"=	c #7A5863",
"-	c #4E333C",
";	c #6D6563",
">	c #BCD8EC",
",	c #003444",
"'	c #245647",
")	c #C4FF8C",
"!	c #99E550",
"~	c #36639C",
"{	c #4F90C5",
"]	c #BBEBFF",
"^	c #86C2EA",
"/	c #A7D250",
"(	c #ACB334",
"_	c #7A8027",
"   ..        ++  @@@@....@@@@@@@@......  @@@@....  @@@@....     ",
"   ..        ++  @@@@....@@@@@@@@......  @@@@....  @@@@....     ",
".....        ++  @@@@................++  @@@@....  @@@@....     ",
".....        ++  @@@@................++  @@@@....  @@@@....     ",
".....        ++  @@@@..............  ++  @@@@....  @@@@....     ",
".....        ++  @@@@..............  ++  @@@@....  @@@@....     ",
"@@@##        ++  @@@@####            ++  @@@@####  @@@@####     ",
"@@@##        ++  @@@@####            ++  @@@@####  @@@@####     ",
"@@@##        ++  @@@@####            ++  @@@@####  @@@@######   ",
"@@@##        ++  @@@@####            ++  @@@@####  @@@@######   ",
"         @@@@##  @@@@####            ++  @@@@####    @@@@######@",
"         @@@@##  @@@@####            ++  @@@@####    @@@@######@",
"@@@@@@@@@@@####  @@@@####            ++  @@@@####    @@@@#######",
"@@@@@@@@@@@####  @@@@####            ++  @@@@####    @@@@#######",
"$$$$$$$$$$$$$$$%%&&&&&&&&&&&&********&&&&&&&&&&&&%%    @@@@$$$$$",
"$$$$$$$$$$$$$$$%%&&&&&&&&&&&&********&&&&&&&&&&&&%%    @@@@$$$$$",
"$$$$$$$$$$$@@&&%%================================%%&&--  @@@@@@$",
"$$$$$$$$$$$@@&&%%================================%%&&--  @@@@@@$",
"@@@@@@@@@----==%%;;>>>>>>==;;>>>>>>==;;>>>>>>>>==%%==----@@@@@@@",
"@@@@@@@@@----==%%;;>>>>>>==;;>>>>>>==;;>>>>>>>>==%%==----@@@@@@@",
"       --@@--==%%;;>>==;;>>;;>>==;;>>;;>>==;;>>==%%==--@@--     ",
"       --@@--==%%;;>>==;;>>;;>>==;;>>;;>>==;;>>==%%==--@@--     ",
"       --@@--==%%;;>>==;;>>;;>>==;;>>;;>>========%%==--@@--     ",
"       --@@--==%%;;>>==;;>>;;>>==;;>>;;>>========%%==--@@--     ",
",,,,,,,--@@--==%%;;>>>>>>==;;>>>>>>==;;>>==>>>>==%%==--@@--,,,,,",
",,,,,,,--@@--==%%;;>>>>>>==;;>>>>>>==;;>>==>>>>==%%==--@@--,,,,,",
"       --@@--==%%;;>>;;>>==;;>>======;;>>==;;>>==%%==--@@--     ",
"       --@@--==%%;;>>;;>>==;;>>======;;>>==;;>>==%%==--@@--     ",
",,,,,,,--@@--==%%;;>>;;;;>>;;>>======;;>>>>>>>>==%%==--@@--,,,,,",
",,,,,,,--@@--==%%;;>>;;;;>>;;>>======;;>>>>>>>>==%%==--@@--,,,,,",
"+++++++--@@--==%%================================%%==--@@--+++++",
"+++++++--@@--==%%================================%%==--@@--+++++",
"+++++++++------------------------------------------------+++++++",
"+++++++++------------------------------------------------+++++++",
"'))))))))))))))))    ))))))))))))))))))))))  ++++'''')))))))))))",
"'))))))))))))))))    ))))))))))))))))))))))  ++++'''')))))))))))",
")!!!!!!!!!!!!!!!!))''''!!!!!!!!!!!!!!!!!!!!))    ++''''!!!!!!!! ",
")!!!!!!!!!!!!!!!!))''''!!!!!!!!!!!!!!!!!!!!))    ++''''!!!!!!!! ",
"!!!~~~~~~~~~~~~!!!!!!''''!!!!            !!!!!!  ++  ''''!!!!   ",
"!!!~~~~~~~~~~~~!!!!!!''''!!!!            !!!!!!  ++  ''''!!!!   ",
"!~~{{{{{{{{{{{{~~!!!!!!''!!!!              !!!!  ++  ''''!!!!   ",
"!~~{{{{{{{{{{{{~~!!!!!!''!!!!              !!!!  ++  ''''!!!!   ",
"~{{{{]]]]]]^^{{{{~~////''////              ////  ++  ''''////   ",
"~{{{{]]]]]]^^{{{{~~////''////              ////  ++  ''''////   ",
"~{{]]]]]]^^^^^^{{~~////''////            //////  ++  ''''////   ",
"~{{]]]]]]^^^^^^{{~~////''////            //////  ++  ''''////   ",
"~{{^^]]]]^^^^^^{{~~////''////////////////////    ++  ''''////   ",
"~{{^^]]]]^^^^^^{{~~////''////////////////////    ++  ''''////   ",
"~{{^^^^]]^^^^^^{{~~////''//////////////////      ++  ''''////   ",
"~{{^^^^]]^^^^^^{{~~////''//////////////////      ++  ''''////   ",
"~{{^^^^^^]]]]]]{{~~////''////''''''//////        ++  ''''////   ",
"~{{^^^^^^]]]]]]{{~~////''////''''''//////        ++  ''''////   ",
"~{{{{^^^^]]]]{{{{~~((((''((((    ''''((((((      ++  ''''((((   ",
"~{{{{^^^^]]]]{{{{~~((((''((((    ''''((((((      ++  ''''((((   ",
"(~~{{{{{{{{{{{{~~((((((''((((++    ''''((((((    ++  ''''((((   ",
"(~~{{{{{{{{{{{{~~((((((''((((++    ''''((((((    ++  ''''((((   ",
"(((~~~~~~~~~~~~((((((''''((((  ++    ''''((((((++  ''''''(((('''",
"(((~~~~~~~~~~~~((((((''''((((  ++    ''''((((((++  ''''''(((('''",
"___________________''''________  ++    ''''______''''''_________",
"___________________''''________  ++    ''''______''''''_________",
"'________________''''____________  ++    ''''___________________",
"'________________''''____________  ++    ''''___________________",
"'''''''''''''''''''''''''''''''''          '''''''''''''''''''''",
"'''''''''''''''''''''''''''''''''          '''''''''''''''''''''"};
