/* XPM */
static char * wall_xpm[] = {
"64 64 14 1",
" 	c #83A448",
".	c #C7B879",
"+	c #D5C78E",
"@	c #BDB078",
"#	c #5E624F",
"$	c #837254",
"%	c #AB9262",
"&	c #A78257",
"*	c #B08F64",
"=	c #957755",
"-	c #BA8548",
";	c #9F773D",
">	c #D0924B",
",	c #987247",
"               ........+++++++++++++.........@@##               ",
"               ........++++++++++++...........$##               ",
"               ......@+++++++++++++...........$##               ",
"               %@@@@.@+++++++++++++@..........$##               ",
"              ++++++@%@@%@@@...++++@..........$$#               ",
"              ++++++++++@........@@@%%........$$#               ",
"              ++++++++++.............@@@@@@@@@$$#               ",
"              ++++++++++.............@........$$#               ",
"               +++++++++@............@........$$#               ",
"               &&&&&++++@............@........$$#               ",
"               &&&&&&$$&*******......@........###               ",
"               &&&&&&$&&&&&&&&&****&&&.......&#$$               ",
"               &&&&&&$&&&&&&&&&&&&&&&&&$$&&&&&#$$               ",
"               &&&&&&&&&&&&&&&&&&&&&&&&&$&&&&&$$$               ",
"               &&&&&&&&&&&&&&&&&&&&&&&&&$&&&&&$$$               ",
"               &&&&&&$&&&&&&&&&&&&&&&&&&&&&&&&$$#               ",
"               #####&#&&&&&&&&&&&&&&&&&&&&&&&&$$#               ",
"                $$$$######$$&&&&&&&&&&&&&&&&&&$$#               ",
"                $$$$$$$$$#&&&&&&&&$$$$&&$&&&&&$$#               ",
"                $$$$$$$$$$&&&&&&&***&$$$$$&$$####               ",
"                $$$$$$$$$&&&&&&&&&&&&$&&&&&&$$##                ",
"                $$$$$$$$$&&&&&&&&&&&&$&&&&&&$$##                ",
"               $$$$$$$$$$&&&&&&&&&&&&$&&&&&&$$##                ",
"              $$$$$$$$$$#&&&&&&&&&&&&$&&&&&&$$##                ",
"              &&&&&$#####&&&&&&&&&&&&$&&&&&&$$##                ",
"              ======&&$&*****&$$$$$#$$&&&&&&$$##                ",
"              ========$&&&&&&&&&&&$$&$$$&&$$##$#                ",
"              =========&&&&&&&&&&&&$&&&&&&&&$$$$                ",
"             ==========&&&&&&&&&&&&$&&&&&&&&$$$$                ",
"             ==========&&&&&&&&&&&&&&&&&&&&&$$$$                ",
"             =========$&&&&&&&&&&&&&&&&&&&&&$$$$                ",
"             $$=======$$&&&&&&&&&&&$&&&&&&&&$$$$                ",
"             &&&&===$$$$$$$$$$&&&&&$&&&&&&&&$$$#                ",
"             &&&&&***&**&&&&$-----$$$&&&&&&&$$##                ",
"             &&&&&&&&&&&&&&&-------#############                ",
"             &&&&&&&&&&&&&&&-------##$$$$$$$###                 ",
"             &&&&&&&&&&&&----------##$$$$$$$##                  ",
"             &&&&&&&&&&&&- -;------##$$$$$$$##                  ",
"             ####$&&&&&&&-  ;------##$$$$$$$##                  ",
"              ###*----;;;;;;;------##$$$$$$$###                 ",
"              $$#*------>>>>=$$===--#$$$$$$####                 ",
"             $$$#*----------=========##$$$$##,#                 ",
"             $$$*-----------=======&&&&$----,,#                 ",
"             $$---------------==========----,,#                 ",
"             ------- ---- - --==========-==-,,#                 ",
"             ----- -  - -   ;========--====-,,,                 ",
"             ##;;; --       ;====--==--==---,,,                 ",
"             &&===;;;;;;;;;;;===------------,,,                 ",
"             =====;=------>>>----;;;####----,##                 ",
"             =======--------------;;;;;;;####,,                 ",
"             =======--------------;-->>>>---,,,                 ",
"              ======- ----------------------,,,                 ",
"              =====;    - ------------------,,,                 ",
"              ##;;;;;      -------;- - -----,,#                 ",
"              --->>;;;;;;;;-------;    -- --,##                 ",
"              ----->>-;;;>>>>>--;;;;;; -  --###                 ",
"              --------;--------------;;;;$$####                 ",
"              --------;--------------;,,,,,,# #                 ",
"              - - ----;--------------;,,,,,,                    ",
"                -  - -# - - --- -----;,,,,,,#                   ",
"                   -  #   - -   - - -;,, , ,#                   ",
"                                  - -;,    ,                    ",
"                                                                ",
"                                                                "};
